<mxfile host="app.diagrams.net" agent="Mozilla/5.0 (Windows NT 10.0; Win64; x64) AppleWebKit/537.36 (KHTML, like Gecko) Chrome/135.0.0.0 Safari/537.36" version="26.2.14">
  <diagram name="Página-1" id="nmSxP0jQd4-2qtpPqOzz">
    <mxGraphModel dx="1737" dy="937" grid="1" gridSize="10" guides="1" tooltips="1" connect="1" arrows="1" fold="1" page="1" pageScale="1" pageWidth="827" pageHeight="1169" math="0" shadow="0">
      <root>
        <mxCell id="0" />
        <mxCell id="1" parent="0" />
        <mxCell id="wGvaur20EuVl2K_F-Xkp-1" value="Administrador" style="shape=umlActor;verticalLabelPosition=bottom;verticalAlign=top;html=1;outlineConnect=0;" vertex="1" parent="1">
          <mxGeometry x="130" y="270" width="30" height="60" as="geometry" />
        </mxCell>
        <mxCell id="wGvaur20EuVl2K_F-Xkp-2" value="Gestionar pedidos" style="ellipse;whiteSpace=wrap;html=1;" vertex="1" parent="1">
          <mxGeometry x="465" y="130" width="240" height="50" as="geometry" />
        </mxCell>
        <mxCell id="wGvaur20EuVl2K_F-Xkp-4" value="Monitorear los envíos en tiempo real" style="ellipse;whiteSpace=wrap;html=1;" vertex="1" parent="1">
          <mxGeometry x="465" y="200" width="225" height="60" as="geometry" />
        </mxCell>
        <mxCell id="wGvaur20EuVl2K_F-Xkp-5" value="Gestionar incidencias" style="ellipse;whiteSpace=wrap;html=1;" vertex="1" parent="1">
          <mxGeometry x="470" y="280" width="220" height="50" as="geometry" />
        </mxCell>
        <mxCell id="wGvaur20EuVl2K_F-Xkp-6" value="Cargar plan de mantenimiento" style="ellipse;whiteSpace=wrap;html=1;" vertex="1" parent="1">
          <mxGeometry x="470" y="360" width="220" height="50" as="geometry" />
        </mxCell>
        <mxCell id="wGvaur20EuVl2K_F-Xkp-7" value="Cargar información necesaria para la simulación" style="ellipse;whiteSpace=wrap;html=1;" vertex="1" parent="1">
          <mxGeometry x="460" y="440" width="250" height="60" as="geometry" />
        </mxCell>
        <mxCell id="wGvaur20EuVl2K_F-Xkp-8" value="Generar reportes operativos" style="ellipse;whiteSpace=wrap;html=1;" vertex="1" parent="1">
          <mxGeometry x="460" y="50" width="250" height="60" as="geometry" />
        </mxCell>
        <mxCell id="wGvaur20EuVl2K_F-Xkp-9" value="" style="endArrow=none;html=1;rounded=0;entryX=0;entryY=0.5;entryDx=0;entryDy=0;" edge="1" parent="1" target="wGvaur20EuVl2K_F-Xkp-8">
          <mxGeometry width="50" height="50" relative="1" as="geometry">
            <mxPoint x="190" y="280" as="sourcePoint" />
            <mxPoint x="420" y="120" as="targetPoint" />
          </mxGeometry>
        </mxCell>
        <mxCell id="wGvaur20EuVl2K_F-Xkp-10" value="" style="endArrow=none;html=1;rounded=0;entryX=0;entryY=0.5;entryDx=0;entryDy=0;" edge="1" parent="1" target="wGvaur20EuVl2K_F-Xkp-2">
          <mxGeometry width="50" height="50" relative="1" as="geometry">
            <mxPoint x="190" y="290" as="sourcePoint" />
            <mxPoint x="470" y="90" as="targetPoint" />
          </mxGeometry>
        </mxCell>
        <mxCell id="wGvaur20EuVl2K_F-Xkp-11" value="" style="endArrow=none;html=1;rounded=0;entryX=0;entryY=0.5;entryDx=0;entryDy=0;" edge="1" parent="1" target="wGvaur20EuVl2K_F-Xkp-4">
          <mxGeometry width="50" height="50" relative="1" as="geometry">
            <mxPoint x="200" y="300" as="sourcePoint" />
            <mxPoint x="475" y="165" as="targetPoint" />
          </mxGeometry>
        </mxCell>
        <mxCell id="wGvaur20EuVl2K_F-Xkp-12" value="" style="endArrow=none;html=1;rounded=0;entryX=0;entryY=0.5;entryDx=0;entryDy=0;" edge="1" parent="1" target="wGvaur20EuVl2K_F-Xkp-5">
          <mxGeometry width="50" height="50" relative="1" as="geometry">
            <mxPoint x="190" y="310" as="sourcePoint" />
            <mxPoint x="485" y="175" as="targetPoint" />
          </mxGeometry>
        </mxCell>
        <mxCell id="wGvaur20EuVl2K_F-Xkp-13" value="" style="endArrow=none;html=1;rounded=0;entryX=0;entryY=0.5;entryDx=0;entryDy=0;" edge="1" parent="1" target="wGvaur20EuVl2K_F-Xkp-6">
          <mxGeometry width="50" height="50" relative="1" as="geometry">
            <mxPoint x="200" y="320" as="sourcePoint" />
            <mxPoint x="495" y="185" as="targetPoint" />
          </mxGeometry>
        </mxCell>
        <mxCell id="wGvaur20EuVl2K_F-Xkp-14" value="" style="endArrow=none;html=1;rounded=0;entryX=0;entryY=0.5;entryDx=0;entryDy=0;" edge="1" parent="1" target="wGvaur20EuVl2K_F-Xkp-7">
          <mxGeometry width="50" height="50" relative="1" as="geometry">
            <mxPoint x="190" y="320" as="sourcePoint" />
            <mxPoint x="450" y="470" as="targetPoint" />
          </mxGeometry>
        </mxCell>
      </root>
    </mxGraphModel>
  </diagram>
</mxfile>
